<?xml version="1.0" encoding="UTF-8" standalone="no"?><!DOCTYPE svg PUBLIC "-//W3C//DTD SVG 1.1//EN" "http://www.w3.org/Graphics/SVG/1.1/DTD/svg11.dtd"><svg width="100%" height="100%" viewBox="0 0 86 86" version="1.1" xmlns="http://www.w3.org/2000/svg" xmlns:xlink="http://www.w3.org/1999/xlink" xml:space="preserve" xmlns:serif="http://www.serif.com/" style="fill-rule:evenodd;clip-rule:evenodd;stroke-linejoin:round;stroke-miterlimit:2;"><path d="M42.729,42.234c0,0 -2.75,-9.09 1.916,-16.261c4.665,-7.168 10.867,-9.891 16.763,-10.46c5.898,-0.57 12.783,2.003 16.656,6.043c8.946,9.341 7.322,21.237 7.322,21.237c0,0 0.06,-13.872 -13.062,-19.918c-3.205,-1.474 -12.712,-3.993 -21.038,2.287c-8.401,6.338 -8.557,17.072 -8.557,17.072Z" style="fill:#7ec242;fill-rule:nonzero;"/><path d="M42.729,42.234c0,0 -7.255,-6.127 -7.249,-14.682c0.009,-8.552 3.726,-14.213 8.362,-17.901c4.636,-3.692 11.812,-5.284 17.259,-4.004c12.589,2.961 17.705,13.822 17.705,13.822c0,0 -7.505,-11.664 -21.801,-9.591c-3.487,0.509 -12.834,3.576 -16.397,13.377c-3.595,9.893 2.121,18.979 2.121,18.979Z" style="fill:#005cac;fill-rule:nonzero;"/><path d="M42.729,42.234c0,0 -9.423,-1.187 -14.076,-8.365c-4.649,-7.177 -4.616,-13.949 -2.737,-19.569c1.878,-5.621 7.029,-10.865 12.295,-12.758c12.173,-4.374 22.378,1.948 22.378,1.948c0,0 -12.649,-5.695 -23.509,3.834c-2.648,2.327 -8.815,9.987 -6.465,20.149c2.372,10.254 12.114,14.761 12.114,14.761Z" style="fill:#005cac;fill-rule:nonzero;"/><path d="M42.729,42.234c0,0 -8.548,4.135 -16.36,0.65c-7.808,-3.487 -11.468,-9.183 -12.955,-14.922c-1.486,-5.735 -0.021,-12.939 3.366,-17.395c7.824,-10.298 19.826,-10.554 19.826,-10.554c0,0 -13.708,2.112 -17.627,16.017c-0.955,3.395 -1.955,13.18 5.55,20.422c7.576,7.308 18.2,5.782 18.2,5.782Z" style="fill:#005cac;fill-rule:nonzero;"/><path d="M42.729,42.234c0,0 -4.917,8.123 -13.366,9.455c-8.45,1.328 -14.62,-1.457 -18.991,-5.458c-4.371,-4.001 -7.067,-10.842 -6.656,-16.423c0.957,-12.899 10.884,-19.649 10.884,-19.649c0,0 -10.348,9.237 -6.063,23.034c1.051,3.366 5.541,12.118 15.779,14.103c10.333,2.003 18.413,-5.062 18.413,-5.062Z" style="fill:#005cac;fill-rule:nonzero;"/><path d="M42.729,42.234c0,0 0.301,9.49 -6.06,15.21c-6.363,5.715 -13.056,6.741 -18.899,5.764c-5.846,-0.974 -11.831,-5.243 -14.526,-10.149c-6.225,-11.337 -1.576,-22.405 -1.576,-22.405c0,0 -3.646,13.382 7.463,22.618c2.711,2.253 11.246,7.147 20.913,3.236c9.755,-3.949 12.685,-14.274 12.685,-14.274Z" style="fill:#005cac;fill-rule:nonzero;"/><path d="M42.729,42.234c0,0 5.421,7.793 3.2,16.057c-2.224,8.257 -7.278,12.763 -12.71,15.128c-5.434,2.366 -12.777,2.046 -17.71,-0.6c-11.392,-6.119 -13.523,-17.935 -13.523,-17.935c0,0 4.229,13.211 18.577,14.905c3.501,0.414 13.324,-0.13 19.302,-8.677c6.03,-8.624 2.864,-18.878 2.864,-18.878Z" style="fill:#e2e3e4;fill-rule:nonzero;"/><path d="M42.729,42.234c0,0 8.79,3.584 11.429,11.723c2.632,8.136 0.849,14.666 -2.42,19.61c-3.27,4.943 -9.602,8.675 -15.18,9.142c-12.889,1.074 -21.11,-7.675 -21.11,-7.675c0,0 10.742,8.776 23.699,2.383c3.161,-1.563 11.102,-7.366 11.461,-17.789c0.363,-10.519 -7.879,-17.394 -7.879,-17.394Z" style="fill:#e2e3e4;fill-rule:nonzero;"/><path d="M42.729,42.234c0,0 9.325,-1.783 15.969,3.606c6.638,5.39 8.7,11.84 8.65,17.766c-0.048,5.926 -3.328,12.506 -7.751,15.933c-10.223,7.92 -21.884,5.062 -21.884,5.062c0,0 13.787,1.509 21.172,-10.908c1.802,-3.034 5.298,-12.226 -0.077,-21.163c-5.425,-9.019 -16.079,-10.296 -16.079,-10.296Z" style="fill:#e2e3e4;fill-rule:nonzero;"/><path d="M42.729,42.234c0,0 6.85,-6.574 15.359,-5.673c8.501,0.903 13.742,5.19 16.927,10.187c3.187,4.997 4.02,12.3 2.179,17.584c-4.261,12.212 -15.598,16.165 -15.598,16.165c0,0 12.386,-6.244 11.816,-20.68c-0.14,-3.525 -2.213,-13.14 -11.587,-17.707c-9.461,-4.609 -19.096,0.124 -19.096,0.124Z" style="fill:#e2e3e4;fill-rule:nonzero;"/><path d="M42.729,42.234c0,0 2.164,-9.244 9.791,-13.124c7.623,-3.873 14.352,-3.131 19.746,-0.674c5.394,2.454 10.07,8.125 11.403,13.559c3.078,12.564 -4.277,22.05 -4.277,22.05c0,0 6.987,-11.979 -1.353,-23.778c-2.039,-2.877 -9.014,-9.815 -19.364,-8.537c-10.445,1.287 -15.946,10.504 -15.946,10.504Z" style="fill:#e2e3e4;fill-rule:nonzero;"/></svg>